# xmcd
#
# Track frame offsets:
#	150
#	17316
#	35375
#	54224
#	71165
#	86137
#	104790
#	124046
#	140781
#	156822
#	173234
#	188709
#	202431
#
# Disc length: 2898 seconds
#
# Revision: 1
# Processed by: cddbd v1.5.2PL0 Copyright (c) Steve Scherf et al.
# Submitted via: audiograbber 1.83.01
#
DISCID=bc0b500d
DTITLE=Trisha Yearwood - Heaven, Heartache and the Power of Love
DYEAR=2007
DGENRE=Country
TTITLE0=Heaven, Heartache and the Power of Love
TTITLE1=This Is Me You're Talking To
TTITLE2=They Call It Falling for a Reason
TTITLE3=Nothin' 'Bout Memphis
TTITLE4=We Tried
TTITLE5=Let the Wind Chase You
TTITLE6=The Dreaming Fields
TTITLE7=Cowboys Are My Weakness
TTITLE8=Help Me
TTITLE9=Not a Bad Thing
TTITLE10=Nothin' About You Is Good for Me
TTITLE11=Drown Me
TTITLE12=Sing You Back to Me
EXTD=
EXTT0=
EXTT1=
EXTT2=
EXTT3=
EXTT4=
EXTT5=
EXTT6=
EXTT7=
EXTT8=
EXTT9=
EXTT10=
EXTT11=
EXTT12=
PLAYORDER=
